<svg width="370" height="113" viewBox="0 0 370 113" fill="none" xmlns="http://www.w3.org/2000/svg">
<path d="M26.304 88.768C22.656 88.768 19.456 88.672 16.704 88.48C14.016 88.288 11.328 88.064 8.64 87.808V20.992C11.648 20.672 14.592 20.448 17.472 20.32C20.352 20.128 23.648 20.032 27.36 20.032C33.12 20.032 38.08 20.928 42.24 22.72C46.464 24.512 49.92 26.976 52.608 30.112C55.36 33.248 57.376 36.896 58.656 41.056C60 45.152 60.672 49.568 60.672 54.304C60.672 58.976 60 63.392 58.656 67.552C57.312 71.712 55.232 75.392 52.416 78.592C49.664 81.728 46.112 84.224 41.76 86.08C37.472 87.872 32.32 88.768 26.304 88.768ZM26.592 80.8C32.352 80.8 37.056 79.68 40.704 77.44C44.352 75.2 47.04 72.096 48.768 68.128C50.496 64.096 51.36 59.488 51.36 54.304C51.36 49.696 50.496 45.376 48.768 41.344C47.04 37.312 44.384 34.08 40.8 31.648C37.216 29.152 32.64 27.904 27.072 27.904C25.216 27.904 23.52 27.968 21.984 28.096C20.448 28.16 19.04 28.256 17.76 28.384V80.32C19.104 80.512 20.512 80.64 21.984 80.704C23.456 80.768 24.992 80.8 26.592 80.8ZM92.2215 89.152C88.0615 89.152 84.2855 88.096 80.8935 85.984C77.5015 83.872 74.7815 80.896 72.7335 77.056C70.7495 73.152 69.7575 68.576 69.7575 63.328C69.7575 58.336 70.7495 53.856 72.7335 49.888C74.7815 45.92 77.5655 42.784 81.0855 40.48C84.6695 38.112 88.7655 36.928 93.3735 36.928C96.2535 36.928 98.8455 37.44 101.15 38.464C103.518 39.424 105.566 40.64 107.294 42.112V38.08H115.166V75.904C115.166 78.336 115.742 79.936 116.894 80.704C118.11 81.408 119.422 81.76 120.83 81.76L119.006 88.48C112.862 88.48 109.15 85.984 107.87 80.992C106.398 83.04 104.382 84.928 101.822 86.656C99.3255 88.32 96.1255 89.152 92.2215 89.152ZM94.1415 81.472C96.5735 81.472 98.8775 80.896 101.054 79.744C103.23 78.528 105.054 77.024 106.526 75.232V48.448C104.798 47.232 102.878 46.272 100.766 45.568C98.7175 44.8 96.5415 44.416 94.2375 44.416C91.1655 44.416 88.4455 45.216 86.0775 46.816C83.7735 48.352 81.9495 50.528 80.6055 53.344C79.2615 56.096 78.5895 59.328 78.5895 63.04C78.5895 66.624 79.2615 69.824 80.6055 72.64C81.9495 75.392 83.8055 77.568 86.1735 79.168C88.5415 80.704 91.1975 81.472 94.1415 81.472ZM145.808 89.152C142.032 89.152 138.608 88.672 135.536 87.712C132.528 86.752 130.031 85.504 128.048 83.968L131.696 76.768C133.36 78.176 135.44 79.36 137.936 80.32C140.496 81.216 143.216 81.664 146.096 81.664C149.68 81.664 152.368 81.088 154.16 79.936C156.016 78.72 156.944 77.184 156.944 75.328C156.944 73.984 156.592 72.8 155.888 71.776C155.248 70.752 154.032 69.76 152.24 68.8C150.448 67.776 147.856 66.688 144.464 65.536C139.792 63.936 136.272 62.048 133.904 59.872C131.6 57.632 130.448 54.56 130.448 50.656C130.448 46.816 132.112 43.584 135.44 40.96C138.832 38.272 143.504 36.928 149.456 36.928C152.656 36.928 155.504 37.28 158 37.984C160.496 38.624 162.736 39.456 164.72 40.48L162.32 47.584C160.592 46.56 158.608 45.728 156.368 45.088C154.192 44.448 151.76 44.128 149.072 44.128C145.744 44.128 143.216 44.8 141.488 46.144C139.76 47.488 138.896 48.96 138.896 50.56C138.896 52.096 139.568 53.408 140.912 54.496C142.256 55.584 144.88 56.768 148.784 58.048C155.12 60.16 159.536 62.496 162.032 65.056C164.528 67.616 165.776 70.816 165.776 74.656C165.776 79.136 163.952 82.688 160.304 85.312C156.72 87.872 151.888 89.152 145.808 89.152Z" fill="#371878"/>
<path d="M178.234 88V20.8H187.354V79.84H218.17V88H178.234ZM247.329 89.152C242.593 89.152 238.337 88.064 234.561 85.888C230.785 83.648 227.809 80.576 225.633 76.672C223.521 72.704 222.465 68.16 222.465 63.04C222.465 57.664 223.553 53.024 225.729 49.12C227.905 45.216 230.881 42.208 234.657 40.096C238.433 37.984 242.657 36.928 247.329 36.928C252.001 36.928 256.193 37.984 259.905 40.096C263.681 42.208 266.657 45.216 268.833 49.12C271.073 52.96 272.193 57.536 272.193 62.848C272.193 68.16 271.105 72.8 268.929 76.768C266.753 80.672 263.777 83.712 260.001 85.888C256.289 88.064 252.065 89.152 247.329 89.152ZM247.329 81.472C252.385 81.472 256.321 79.776 259.137 76.384C261.953 72.928 263.361 68.48 263.361 63.04C263.361 59.712 262.657 56.672 261.249 53.92C259.841 51.104 257.921 48.864 255.489 47.2C253.121 45.472 250.401 44.608 247.329 44.608C242.273 44.608 238.337 46.272 235.521 49.6C232.705 52.928 231.297 57.344 231.297 62.848C231.297 66.176 232.001 69.28 233.409 72.16C234.817 74.976 236.705 77.248 239.073 78.976C241.505 80.64 244.257 81.472 247.329 81.472ZM301.152 89.152C296.352 89.152 292.544 87.584 289.728 84.448C286.976 81.248 285.6 76.704 285.6 70.816V47.392H276.96V39.904H285.792L287.616 24.16H294.24V39.904H308.064V47.392H294.24V71.488C294.24 75.2 295.008 77.792 296.544 79.264C298.144 80.736 300.032 81.472 302.208 81.472C303.808 81.472 305.312 81.216 306.72 80.704C308.192 80.192 309.536 79.584 310.752 78.88L313.152 85.792C311.872 86.56 310.144 87.296 307.968 88C305.792 88.768 303.52 89.152 301.152 89.152ZM340.985 89.152C336.249 89.152 331.993 88.064 328.217 85.888C324.441 83.648 321.465 80.576 319.289 76.672C317.177 72.704 316.121 68.16 316.121 63.04C316.121 57.664 317.209 53.024 319.385 49.12C321.561 45.216 324.537 42.208 328.313 40.096C332.089 37.984 336.313 36.928 340.985 36.928C345.657 36.928 349.849 37.984 353.561 40.096C357.337 42.208 360.313 45.216 362.489 49.12C364.729 52.96 365.849 57.536 365.849 62.848C365.849 68.16 364.761 72.8 362.585 76.768C360.409 80.672 357.433 83.712 353.657 85.888C349.945 88.064 345.721 89.152 340.985 89.152ZM340.985 81.472C346.041 81.472 349.977 79.776 352.793 76.384C355.609 72.928 357.017 68.48 357.017 63.04C357.017 59.712 356.313 56.672 354.905 53.92C353.497 51.104 351.577 48.864 349.145 47.2C346.777 45.472 344.057 44.608 340.985 44.608C335.929 44.608 331.993 46.272 329.177 49.6C326.361 52.928 324.953 57.344 324.953 62.848C324.953 66.176 325.657 69.28 327.065 72.16C328.473 74.976 330.361 77.248 332.729 78.976C335.161 80.64 337.913 81.472 340.985 81.472Z" fill="#53398B"/>
</svg>
