<svg width="233" height="222" viewBox="0 0 233 222" fill="none" xmlns="http://www.w3.org/2000/svg">
<path d="M88.7967 143.613C96.4578 149.463 106.091 152.948 116.555 152.948C127.418 152.948 137.387 149.192 145.182 142.932L141.983 139.759C135.025 145.207 126.194 148.472 116.555 148.472C107.318 148.472 98.8223 145.473 92.0072 140.429L88.7967 143.613Z" fill="white"/>
<path d="M84.5069 133.221L81.312 136.39C75.0795 128.795 71.3496 119.143 71.3496 108.638C71.3496 97.803 75.3169 87.8765 81.9054 80.1779L85.0938 83.34C79.2976 90.2314 75.8254 99.0522 75.8254 108.638C75.8254 117.895 79.064 126.44 84.5069 133.221Z" fill="white"/>
<path d="M148.713 84.1918C154.089 90.9514 157.285 99.4427 157.285 108.638C157.285 117.504 154.314 125.716 149.282 132.352L152.486 135.53C158.304 128.072 161.76 118.751 161.76 108.638C161.76 98.1949 158.075 88.5958 151.909 81.0219L148.713 84.1918Z" fill="white"/>
<path d="M144.453 73.77L141.245 76.9521C134.406 71.844 125.856 68.8034 116.555 68.8034C107.657 68.8034 99.4462 71.5863 92.7634 76.3001L89.5421 73.1054C97.0784 67.5918 106.428 64.3276 116.555 64.3276C127.083 64.3276 136.77 67.8551 144.453 73.77Z" fill="white"/>
<path d="M71.3502 108.355L49.311 108.466C46.3548 108.602 41.8795 108.761 37.7258 108.809C35.6026 108.833 33.4725 108.829 31.6338 108.771C30.1321 108.724 27.8303 108.624 25.9576 108.192C23.2237 107.561 20.5865 106.321 18.8348 105.414C16.9316 104.429 15.2095 103.38 14.0974 102.639L13.9714 102.555L13.8478 102.467C12.1023 101.231 9.7719 99.2323 7.56521 96.7443C5.40016 94.3032 2.81739 90.7922 1.3243 86.4997C-0.288211 81.8639 -0.175217 77.359 0.343416 73.9881C0.860788 70.6253 1.89673 67.6369 2.93526 65.56L3.16335 65.1038L3.43366 64.6713C4.70451 62.638 6.79431 60.1019 9.50757 57.8327C11.5639 56.113 14.3232 54.2593 17.7051 53.026C16.8817 51.0154 16.2595 48.7457 16.0606 46.2592C15.3948 37.9372 19.0415 30.8762 21.517 27.4386C23.248 24.6086 25.9336 22.4256 28.6308 20.8856C32.04 18.9392 36.398 17.4644 41.7665 16.7761C46.028 16.2298 49.7702 16.6616 52.9983 17.6682C53.9175 14.6937 55.3403 12.1864 56.7652 10.2232C59.0148 7.1235 61.7004 4.77033 63.9132 3.35412L64.5141 2.96957L65.1605 2.66791C70.0057 0.406934 80.3856 -1.84209 91.4797 2.35551C98.4872 5.00689 103.331 10.5859 106.331 15.0274C109.459 19.6574 111.582 24.5399 112.661 27.8954L113.176 29.4974V64.4497C104.35 65.089 96.2288 68.2121 89.5375 73.1087L74.571 58.2659C72.5321 56.2438 69.2399 56.2574 67.2177 58.2964C65.1956 60.3354 65.2092 63.6276 67.2482 65.6497L81.9016 80.1821C75.3726 87.8131 71.4186 97.6324 71.3502 108.355Z" fill="white"/>
<path d="M145.178 142.936C138.143 148.583 129.339 152.192 119.705 152.842V192.501L120.22 194.103C121.299 197.459 123.422 202.341 126.55 206.971C129.55 211.413 134.394 216.992 141.401 219.643C152.496 223.841 162.875 221.592 167.721 219.331L168.367 219.029L168.968 218.644C171.181 217.228 173.866 214.875 176.116 211.775C177.541 209.812 178.964 207.305 179.883 204.33C183.111 205.337 186.853 205.769 191.115 205.222C196.483 204.534 200.841 203.059 204.25 201.113C206.948 199.573 209.633 197.39 211.364 194.56C213.84 191.122 217.486 184.061 216.821 175.739C216.622 173.253 215.999 170.983 215.176 168.972C218.558 167.739 221.317 165.885 223.374 164.166C226.087 161.897 228.177 159.36 229.447 157.327L229.718 156.895L229.946 156.439C230.984 154.362 232.02 151.373 232.538 148.01C233.056 144.639 233.169 140.135 231.557 135.499C230.064 131.206 227.481 127.695 225.316 125.254C223.109 122.766 220.779 120.767 219.033 119.531L218.91 119.443L218.784 119.359C217.672 118.618 215.949 117.569 214.046 116.584C212.295 115.677 209.657 114.437 206.923 113.806C205.051 113.374 202.749 113.275 201.247 113.227C199.409 113.169 197.279 113.165 195.155 113.19C191.002 113.237 186.526 113.396 183.57 113.533L161.475 113.644C160.537 121.82 157.329 129.324 152.483 135.534L167.409 150.338C169.448 152.36 169.462 155.652 167.44 157.691C165.418 159.73 162.126 159.744 160.087 157.721L145.178 142.936Z" fill="white"/>
<path d="M71.6347 113.645L49.311 113.533C46.3548 113.396 41.8795 113.237 37.7258 113.19C35.6026 113.165 33.4725 113.169 31.6338 113.227C30.1321 113.275 27.8303 113.374 25.9576 113.806C23.2237 114.437 20.5865 115.677 18.8348 116.584C16.9316 117.569 15.2095 118.618 14.0974 119.359L13.9714 119.443L13.8478 119.531C12.1023 120.767 9.7719 122.766 7.56521 125.254C5.40016 127.695 2.81739 131.206 1.3243 135.499C-0.288211 140.135 -0.175217 144.639 0.343416 148.01C0.860788 151.373 1.89673 154.362 2.93526 156.439L3.16335 156.895L3.43366 157.327C4.70451 159.36 6.79431 161.897 9.50757 164.166C11.5639 165.885 14.3232 167.739 17.7051 168.972C16.8817 170.983 16.2595 173.253 16.0606 175.739C15.3948 184.061 19.0415 191.122 21.517 194.56C23.248 197.39 25.9336 199.573 28.6308 201.113C32.04 203.059 36.398 204.534 41.7665 205.222C46.028 205.769 49.7702 205.337 52.9983 204.33C53.9175 207.305 55.3403 209.812 56.7652 211.775C59.0148 214.875 61.7004 217.228 63.9132 218.644L64.5141 219.029L65.1605 219.331C70.0057 221.592 80.3856 223.841 91.4797 219.643C98.4872 216.992 103.331 211.413 106.331 206.971C109.459 202.341 111.582 197.459 112.661 194.103L113.176 192.501V152.826C104.021 152.163 95.6253 148.828 88.7965 143.613L74.5708 157.721C72.5318 159.744 69.2396 159.73 67.2174 157.691C65.1953 155.652 65.2089 152.36 67.2479 150.338L81.3117 136.39C76.0834 130.019 72.6163 122.2 71.6347 113.645Z" fill="white"/>
<path d="M151.909 81.0221C158.019 88.5278 161.693 98.0225 161.759 108.356L183.57 108.466C186.526 108.602 191.002 108.761 195.155 108.809C197.279 108.833 199.409 108.829 201.247 108.771C202.749 108.724 205.051 108.624 206.923 108.192C209.657 107.561 212.295 106.321 214.046 105.414C215.949 104.429 217.672 103.38 218.784 102.639L218.91 102.555L219.033 102.467C220.779 101.231 223.109 99.2323 225.316 96.7443C227.481 94.3032 230.064 90.7922 231.557 86.4997C233.169 81.8639 233.056 77.359 232.538 73.9881C232.02 70.6253 230.984 67.6369 229.946 65.56L229.718 65.1038L229.447 64.6713C228.177 62.638 226.087 60.1019 223.374 57.8327C221.317 56.113 218.558 54.2593 215.176 53.026C215.999 51.0154 216.622 48.7457 216.821 46.2592C217.486 37.9372 213.84 30.8762 211.364 27.4386C209.633 24.6086 206.948 22.4256 204.25 20.8856C200.841 18.9392 196.483 17.4644 191.115 16.7761C186.853 16.2298 183.111 16.6616 179.883 17.6682C178.964 14.6937 177.541 12.1864 176.116 10.2232C173.866 7.1235 171.181 4.77033 168.968 3.35412L168.367 2.96957L167.721 2.66791C162.875 0.406934 152.496 -1.84209 141.401 2.35551C134.394 5.00689 129.55 10.5859 126.55 15.0274C123.422 19.6574 121.299 24.5399 120.22 27.8954L119.705 29.4974V64.4337C129.011 65.0617 137.542 68.4503 144.453 73.7702L160.086 58.2659C162.125 56.2437 165.418 56.2574 167.44 58.2963C169.462 60.3353 169.448 63.6275 167.409 65.6497L151.909 81.0221Z" fill="white"/>
<path d="M98.6315 116.123H106.832V130H98.6315V116.123Z" fill="white"/>
<path d="M111.877 110.446H120.077V130H111.877V110.446Z" fill="white"/>
<path d="M125.123 101.615H133.323V130H125.123V101.615Z" fill="white"/>
<path d="M101.785 111.708C99.0092 112.465 98.1051 112.023 98 111.708C98 111.392 98.1564 110.628 105.885 107.923C112.192 105.715 124.072 96.8846 127.015 93.4154L125.123 90.8923L133.323 89L131.431 97.5154L129.538 94.9923C117.869 106.346 105.254 110.762 101.785 111.708Z" fill="white"/>
</svg>
