<svg width="309" height="335" viewBox="0 0 309 335" fill="none" xmlns="http://www.w3.org/2000/svg">
<path d="M126.855 143.613C134.516 149.463 144.15 152.948 154.614 152.948C165.477 152.948 175.445 149.192 183.241 142.932L180.041 139.759C173.084 145.207 164.252 148.472 154.614 148.472C145.377 148.472 136.881 145.473 130.066 140.429L126.855 143.613Z" fill="#371878"/>
<path d="M122.565 133.221L119.371 136.39C113.138 128.795 109.408 119.143 109.408 108.638C109.408 97.803 113.376 87.8765 119.964 80.1779L123.152 83.34C117.356 90.2314 113.884 99.0522 113.884 108.638C113.884 117.895 117.123 126.44 122.565 133.221Z" fill="#371878"/>
<path d="M186.771 84.1918C192.148 90.9514 195.343 99.4427 195.343 108.638C195.343 117.504 192.373 125.716 187.34 132.352L190.545 135.53C196.363 128.072 199.819 118.751 199.819 108.638C199.819 98.1949 196.133 88.5958 189.968 81.0219L186.771 84.1918Z" fill="#371878"/>
<path d="M182.512 73.77L179.303 76.9521C172.464 71.844 163.915 68.8034 154.614 68.8034C145.715 68.8034 137.505 71.5863 130.822 76.3001L127.601 73.1054C135.137 67.5918 144.486 64.3276 154.614 64.3276C165.141 64.3276 174.828 67.8551 182.512 73.77Z" fill="#371878"/>
<path d="M136.633 116.123H144.833V130H136.633V116.123Z" fill="#371878"/>
<path d="M149.879 110.446H158.079V130H149.879V110.446Z" fill="#371878"/>
<path d="M163.125 101.615H171.325V130H163.125V101.615Z" fill="#371878"/>
<path d="M139.787 111.708C137.011 112.465 136.107 112.023 136.002 111.708C136.002 111.392 136.158 110.628 143.887 107.923C150.194 105.715 162.074 96.8846 165.017 93.4154L163.125 90.8923L171.325 89L169.433 97.5154L167.54 94.9923C155.871 106.346 143.256 110.762 139.787 111.708Z" fill="#371878"/>
<path d="M109.41 108.355L87.3706 108.466C84.4143 108.602 79.939 108.761 75.7854 108.809C73.6622 108.833 71.5321 108.829 69.6934 108.771C68.1917 108.724 65.8898 108.624 64.0172 108.192C61.2833 107.561 58.6461 106.321 56.8944 105.414C54.9912 104.429 53.2691 103.38 52.157 102.639L52.031 102.555L51.9073 102.467C50.1619 101.231 47.8315 99.2323 45.6248 96.7443C43.4597 94.3032 40.877 90.7922 39.3839 86.4997C37.7714 81.8639 37.8844 77.359 38.403 73.9881C38.9204 70.6253 39.9563 67.6369 40.9948 65.56L41.2229 65.1038L41.4932 64.6713C42.7641 62.638 44.8539 60.1019 47.5671 57.8327C49.6234 56.113 52.3828 54.2593 55.7646 53.026C54.9412 51.0154 54.3191 48.7457 54.1201 46.2592C53.4543 37.9372 57.101 30.8762 59.5765 27.4386C61.3076 24.6086 63.9931 22.4255 66.6904 20.8856C70.0996 18.9392 74.4576 17.4644 79.8261 16.7761C84.0876 16.2298 87.8297 16.6616 91.0579 17.6682C91.977 14.6937 93.3999 12.1864 94.8247 10.2232C97.0743 7.1235 99.76 4.77033 101.973 3.35412L102.574 2.96957L103.22 2.66791C108.065 0.406934 118.445 -1.84209 129.539 2.35551C136.547 5.00689 141.39 10.5859 144.391 15.0274C147.519 19.6574 149.642 24.5399 150.72 27.8954L151.235 29.4974V64.4497C142.409 65.089 134.288 68.2121 127.597 73.1087L112.631 58.2659C110.592 56.2438 107.299 56.2574 105.277 58.2964C103.255 60.3354 103.269 63.6276 105.308 65.6497L119.961 80.1821C113.432 87.8131 109.478 97.6324 109.41 108.355Z" fill="#371878"/>
<path d="M183.237 142.936C176.203 148.583 167.399 152.192 157.765 152.842V192.501L158.28 194.103C159.358 197.459 161.482 202.341 164.609 206.971C167.61 211.413 172.453 216.992 179.461 219.643C190.555 223.841 200.935 221.592 205.78 219.331L206.427 219.029L207.027 218.644C209.24 217.228 211.926 214.875 214.176 211.775C215.6 209.812 217.023 207.305 217.942 204.33C221.17 205.337 224.913 205.769 229.174 205.222C234.543 204.534 238.901 203.059 242.31 201.113C245.007 199.573 247.693 197.39 249.424 194.56C251.899 191.122 255.546 184.061 254.88 175.739C254.681 173.253 254.059 170.983 253.236 168.972C256.617 167.739 259.377 165.885 261.433 164.166C264.146 161.897 266.236 159.36 267.507 157.327L267.777 156.895L268.005 156.439C269.044 154.362 270.08 151.373 270.597 148.01C271.116 144.639 271.229 140.135 269.616 135.499C268.123 131.206 265.54 127.695 263.375 125.254C261.169 122.766 258.838 120.767 257.093 119.531L256.969 119.443L256.843 119.359C255.731 118.618 254.009 117.569 252.106 116.584C250.354 115.677 247.717 114.437 244.983 113.806C243.11 113.374 240.809 113.275 239.307 113.227C237.468 113.169 235.338 113.165 233.215 113.19C229.061 113.237 224.586 113.396 221.63 113.533L199.534 113.644C198.596 121.82 195.388 129.324 190.542 135.534L205.469 150.338C207.508 152.36 207.522 155.652 205.5 157.691C203.477 159.73 200.185 159.744 198.146 157.721L183.237 142.936Z" fill="#371878"/>
<path d="M109.694 113.645L87.3706 113.533C84.4143 113.396 79.939 113.237 75.7854 113.19C73.6622 113.165 71.5321 113.169 69.6934 113.227C68.1917 113.275 65.8898 113.374 64.0172 113.806C61.2833 114.437 58.6461 115.677 56.8944 116.584C54.9912 117.569 53.2691 118.618 52.157 119.359L52.031 119.443L51.9073 119.531C50.1619 120.767 47.8315 122.766 45.6248 125.254C43.4597 127.695 40.877 131.206 39.3839 135.499C37.7714 140.135 37.8844 144.639 38.403 148.01C38.9204 151.373 39.9563 154.362 40.9948 156.439L41.2229 156.895L41.4932 157.327C42.7641 159.36 44.8539 161.897 47.5671 164.166C49.6234 165.885 52.3828 167.739 55.7646 168.972C54.9412 170.983 54.3191 173.253 54.1201 175.739C53.4543 184.061 57.101 191.122 59.5765 194.56C61.3076 197.39 63.9931 199.573 66.6904 201.113C70.0996 203.059 74.4576 204.534 79.8261 205.222C84.0876 205.769 87.8297 205.337 91.0579 204.33C91.977 207.305 93.3999 209.812 94.8247 211.775C97.0743 214.875 99.76 217.228 101.973 218.644L102.574 219.029L103.22 219.331C108.065 221.592 118.445 223.841 129.539 219.643C136.547 216.992 141.39 211.413 144.391 206.971C147.519 202.341 149.642 197.459 150.72 194.103L151.235 192.501V152.826C142.081 152.163 133.685 148.828 126.856 143.613L112.63 157.721C110.591 159.744 107.299 159.73 105.277 157.691C103.255 155.652 103.269 152.36 105.308 150.338L119.371 136.39C114.143 130.019 110.676 122.2 109.694 113.645Z" fill="#371878"/>
<path d="M189.968 81.0221C196.079 88.5278 199.753 98.0225 199.819 108.356L221.63 108.466C224.586 108.602 229.061 108.761 233.215 108.809C235.338 108.833 237.468 108.829 239.307 108.771C240.809 108.724 243.11 108.624 244.983 108.192C247.717 107.561 250.354 106.321 252.106 105.414C254.009 104.429 255.731 103.38 256.843 102.639L256.969 102.555L257.093 102.467C258.838 101.231 261.169 99.2323 263.375 96.7443C265.54 94.3032 268.123 90.7922 269.616 86.4997C271.229 81.8639 271.116 77.359 270.597 73.9881C270.08 70.6253 269.044 67.6369 268.005 65.56L267.777 65.1038L267.507 64.6713C266.236 62.638 264.146 60.1019 261.433 57.8327C259.377 56.113 256.617 54.2593 253.236 53.026C254.059 51.0154 254.681 48.7457 254.88 46.2592C255.546 37.9372 251.899 30.8762 249.424 27.4386C247.693 24.6086 245.007 22.4255 242.31 20.8856C238.901 18.9392 234.543 17.4644 229.174 16.7761C224.913 16.2298 221.17 16.6616 217.942 17.6682C217.023 14.6937 215.6 12.1864 214.176 10.2232C211.926 7.1235 209.24 4.77033 207.027 3.35412L206.427 2.96957L205.78 2.66791C200.935 0.406934 190.555 -1.84209 179.461 2.35551C172.453 5.00689 167.61 10.5859 164.609 15.0274C161.482 19.6574 159.358 24.5399 158.28 27.8954L157.765 29.4974V64.4337C167.071 65.0617 175.602 68.4503 182.513 73.7702L198.146 58.2659C200.185 56.2437 203.477 56.2574 205.499 58.2963C207.521 60.3353 207.508 63.6275 205.469 65.6497L189.968 81.0221Z" fill="#371878"/>
<path d="M21.92 314.639C18.88 314.639 16.2133 314.559 13.92 314.399C11.68 314.239 9.44 314.052 7.2 313.839V258.159C9.70667 257.892 12.16 257.705 14.56 257.599C16.96 257.439 19.7067 257.359 22.8 257.359C27.6 257.359 31.7333 258.105 35.2 259.599C38.72 261.092 41.6 263.145 43.84 265.759C46.1333 268.372 47.8133 271.412 48.88 274.879C50 278.292 50.56 281.972 50.56 285.919C50.56 289.812 50 293.492 48.88 296.959C47.76 300.425 46.0267 303.492 43.68 306.159C41.3867 308.772 38.4267 310.852 34.8 312.399C31.2267 313.892 26.9333 314.639 21.92 314.639ZM22.16 307.999C26.96 307.999 30.88 307.065 33.92 305.199C36.96 303.332 39.2 300.745 40.64 297.439C42.08 294.079 42.8 290.239 42.8 285.919C42.8 282.079 42.08 278.479 40.64 275.119C39.2 271.759 36.9867 269.065 34 267.039C31.0133 264.959 27.2 263.919 22.56 263.919C21.0133 263.919 19.6 263.972 18.32 264.079C17.04 264.132 15.8667 264.212 14.8 264.319V307.599C15.92 307.759 17.0933 307.865 18.32 307.919C19.5467 307.972 20.8267 307.999 22.16 307.999ZM76.8513 314.959C73.3846 314.959 70.2379 314.079 67.4113 312.319C64.5846 310.559 62.3179 308.079 60.6113 304.879C58.9579 301.625 58.1313 297.812 58.1313 293.439C58.1313 289.279 58.9579 285.545 60.6113 282.239C62.3179 278.932 64.6379 276.319 67.5713 274.399C70.5579 272.425 73.9713 271.439 77.8113 271.439C80.2113 271.439 82.3713 271.865 84.2913 272.719C86.2646 273.519 87.9713 274.532 89.4113 275.759V272.399H95.9713V303.919C95.9713 305.945 96.4513 307.279 97.4113 307.919C98.4246 308.505 99.5179 308.799 100.691 308.799L99.1713 314.399C94.0513 314.399 90.9579 312.319 89.8913 308.159C88.6646 309.865 86.9846 311.439 84.8513 312.879C82.7713 314.265 80.1046 314.959 76.8513 314.959ZM78.4513 308.559C80.4779 308.559 82.3979 308.079 84.2113 307.119C86.0246 306.105 87.5446 304.852 88.7713 303.359V281.039C87.3313 280.025 85.7313 279.225 83.9713 278.639C82.2646 277.999 80.4513 277.679 78.5313 277.679C75.9713 277.679 73.7046 278.345 71.7313 279.679C69.8113 280.959 68.2913 282.772 67.1713 285.119C66.0513 287.412 65.4913 290.105 65.4913 293.199C65.4913 296.185 66.0513 298.852 67.1713 301.199C68.2913 303.492 69.8379 305.305 71.8113 306.639C73.7846 307.919 75.9979 308.559 78.4513 308.559ZM121.506 314.959C118.36 314.959 115.506 314.559 112.946 313.759C110.44 312.959 108.36 311.919 106.706 310.639L109.746 304.639C111.133 305.812 112.866 306.799 114.946 307.599C117.08 308.345 119.346 308.719 121.746 308.719C124.733 308.719 126.973 308.239 128.466 307.279C130.013 306.265 130.786 304.985 130.786 303.439C130.786 302.319 130.493 301.332 129.906 300.479C129.373 299.625 128.36 298.799 126.866 297.999C125.373 297.145 123.213 296.239 120.386 295.279C116.493 293.945 113.56 292.372 111.586 290.559C109.666 288.692 108.706 286.132 108.706 282.879C108.706 279.679 110.093 276.985 112.866 274.799C115.693 272.559 119.586 271.439 124.546 271.439C127.213 271.439 129.586 271.732 131.666 272.319C133.746 272.852 135.613 273.545 137.266 274.399L135.266 280.319C133.826 279.465 132.173 278.772 130.306 278.239C128.493 277.705 126.466 277.439 124.226 277.439C121.453 277.439 119.346 277.999 117.906 279.119C116.466 280.239 115.746 281.465 115.746 282.799C115.746 284.079 116.306 285.172 117.426 286.079C118.546 286.985 120.733 287.972 123.986 289.039C129.266 290.799 132.946 292.745 135.026 294.879C137.106 297.012 138.146 299.679 138.146 302.879C138.146 306.612 136.626 309.572 133.586 311.759C130.6 313.892 126.573 314.959 121.506 314.959Z" fill="#371878"/>
<path d="M148.528 313.999V257.999H156.128V307.199H181.808V313.999H148.528ZM206.108 314.959C202.161 314.959 198.614 314.052 195.468 312.239C192.321 310.372 189.841 307.812 188.028 304.559C186.268 301.252 185.388 297.465 185.388 293.199C185.388 288.719 186.294 284.852 188.108 281.599C189.921 278.345 192.401 275.839 195.548 274.079C198.694 272.319 202.214 271.439 206.108 271.439C210.001 271.439 213.494 272.319 216.588 274.079C219.734 275.839 222.214 278.345 224.028 281.599C225.894 284.799 226.828 288.612 226.828 293.039C226.828 297.465 225.921 301.332 224.108 304.639C222.294 307.892 219.814 310.425 216.668 312.239C213.574 314.052 210.054 314.959 206.108 314.959ZM206.108 308.559C210.321 308.559 213.601 307.145 215.948 304.319C218.294 301.439 219.468 297.732 219.468 293.199C219.468 290.425 218.881 287.892 217.708 285.599C216.534 283.252 214.934 281.385 212.908 279.999C210.934 278.559 208.668 277.839 206.108 277.839C201.894 277.839 198.614 279.225 196.268 281.999C193.921 284.772 192.747 288.452 192.747 293.039C192.747 295.812 193.334 298.399 194.508 300.799C195.681 303.145 197.254 305.039 199.228 306.479C201.254 307.865 203.548 308.559 206.108 308.559ZM250.96 314.959C246.96 314.959 243.787 313.652 241.44 311.039C239.147 308.372 238 304.585 238 299.679V280.159H230.8V273.919H238.16L239.68 260.799H245.2V273.919H256.72V280.159H245.2V300.239C245.2 303.332 245.84 305.492 247.12 306.719C248.453 307.945 250.027 308.559 251.84 308.559C253.173 308.559 254.427 308.345 255.6 307.919C256.827 307.492 257.947 306.985 258.96 306.399L260.96 312.159C259.893 312.799 258.453 313.412 256.64 313.999C254.827 314.639 252.933 314.959 250.96 314.959ZM284.154 314.959C280.208 314.959 276.661 314.052 273.514 312.239C270.368 310.372 267.888 307.812 266.074 304.559C264.314 301.252 263.434 297.465 263.434 293.199C263.434 288.719 264.341 284.852 266.154 281.599C267.968 278.345 270.448 275.839 273.594 274.079C276.741 272.319 280.261 271.439 284.154 271.439C288.048 271.439 291.541 272.319 294.634 274.079C297.781 275.839 300.261 278.345 302.074 281.599C303.941 284.799 304.874 288.612 304.874 293.039C304.874 297.465 303.968 301.332 302.154 304.639C300.341 307.892 297.861 310.425 294.714 312.239C291.621 314.052 288.101 314.959 284.154 314.959ZM284.154 308.559C288.368 308.559 291.648 307.145 293.994 304.319C296.341 301.439 297.514 297.732 297.514 293.199C297.514 290.425 296.928 287.892 295.754 285.599C294.581 283.252 292.981 281.385 290.954 279.999C288.981 278.559 286.714 277.839 284.154 277.839C279.941 277.839 276.661 279.225 274.314 281.999C271.968 284.772 270.794 288.452 270.794 293.039C270.794 295.812 271.381 298.399 272.554 300.799C273.728 303.145 275.301 305.039 277.274 306.479C279.301 307.865 281.594 308.559 284.154 308.559Z" fill="#53398B"/>
</svg>
