<svg width="496" height="113" viewBox="0 0 496 113" fill="none" xmlns="http://www.w3.org/2000/svg">
<path d="M152.304 88.768C148.656 88.768 145.456 88.672 142.704 88.48C140.016 88.288 137.328 88.064 134.64 87.808V20.992C137.648 20.672 140.592 20.448 143.472 20.32C146.352 20.128 149.648 20.032 153.36 20.032C159.12 20.032 164.08 20.928 168.24 22.72C172.464 24.512 175.92 26.976 178.608 30.112C181.36 33.248 183.376 36.896 184.656 41.056C186 45.152 186.672 49.568 186.672 54.304C186.672 58.976 186 63.392 184.656 67.552C183.312 71.712 181.232 75.392 178.416 78.592C175.664 81.728 172.112 84.224 167.76 86.08C163.472 87.872 158.32 88.768 152.304 88.768ZM152.592 80.8C158.352 80.8 163.056 79.68 166.704 77.44C170.352 75.2 173.04 72.096 174.768 68.128C176.496 64.096 177.36 59.488 177.36 54.304C177.36 49.696 176.496 45.376 174.768 41.344C173.04 37.312 170.384 34.08 166.8 31.648C163.216 29.152 158.64 27.904 153.072 27.904C151.216 27.904 149.52 27.968 147.984 28.096C146.448 28.16 145.04 28.256 143.76 28.384V80.32C145.104 80.512 146.512 80.64 147.984 80.704C149.456 80.768 150.992 80.8 152.592 80.8ZM218.222 89.152C214.062 89.152 210.286 88.096 206.894 85.984C203.502 83.872 200.782 80.896 198.734 77.056C196.75 73.152 195.758 68.576 195.758 63.328C195.758 58.336 196.75 53.856 198.734 49.888C200.782 45.92 203.566 42.784 207.086 40.48C210.67 38.112 214.766 36.928 219.374 36.928C222.254 36.928 224.846 37.44 227.15 38.464C229.518 39.424 231.566 40.64 233.294 42.112V38.08H241.166V75.904C241.166 78.336 241.742 79.936 242.894 80.704C244.11 81.408 245.422 81.76 246.83 81.76L245.006 88.48C238.862 88.48 235.15 85.984 233.87 80.992C232.398 83.04 230.382 84.928 227.822 86.656C225.326 88.32 222.126 89.152 218.222 89.152ZM220.142 81.472C222.574 81.472 224.878 80.896 227.054 79.744C229.23 78.528 231.054 77.024 232.526 75.232V48.448C230.798 47.232 228.878 46.272 226.766 45.568C224.718 44.8 222.542 44.416 220.238 44.416C217.166 44.416 214.446 45.216 212.078 46.816C209.774 48.352 207.95 50.528 206.606 53.344C205.262 56.096 204.59 59.328 204.59 63.04C204.59 66.624 205.262 69.824 206.606 72.64C207.95 75.392 209.806 77.568 212.174 79.168C214.542 80.704 217.198 81.472 220.142 81.472ZM271.808 89.152C268.032 89.152 264.608 88.672 261.536 87.712C258.528 86.752 256.031 85.504 254.048 83.968L257.696 76.768C259.36 78.176 261.44 79.36 263.936 80.32C266.496 81.216 269.216 81.664 272.096 81.664C275.68 81.664 278.368 81.088 280.16 79.936C282.016 78.72 282.944 77.184 282.944 75.328C282.944 73.984 282.592 72.8 281.888 71.776C281.248 70.752 280.032 69.76 278.24 68.8C276.448 67.776 273.856 66.688 270.464 65.536C265.792 63.936 262.272 62.048 259.904 59.872C257.6 57.632 256.448 54.56 256.448 50.656C256.448 46.816 258.112 43.584 261.44 40.96C264.832 38.272 269.504 36.928 275.456 36.928C278.656 36.928 281.504 37.28 284 37.984C286.496 38.624 288.736 39.456 290.72 40.48L288.32 47.584C286.592 46.56 284.608 45.728 282.368 45.088C280.192 44.448 277.76 44.128 275.072 44.128C271.744 44.128 269.216 44.8 267.488 46.144C265.76 47.488 264.896 48.96 264.896 50.56C264.896 52.096 265.568 53.408 266.912 54.496C268.256 55.584 270.88 56.768 274.784 58.048C281.12 60.16 285.536 62.496 288.032 65.056C290.528 67.616 291.776 70.816 291.776 74.656C291.776 79.136 289.952 82.688 286.304 85.312C282.72 87.872 277.888 89.152 271.808 89.152Z" fill="#371878"/>
<path d="M304.234 88V20.8H313.354V79.84H344.17V88H304.234ZM373.329 89.152C368.593 89.152 364.337 88.064 360.561 85.888C356.785 83.648 353.809 80.576 351.633 76.672C349.521 72.704 348.465 68.16 348.465 63.04C348.465 57.664 349.553 53.024 351.729 49.12C353.905 45.216 356.881 42.208 360.657 40.096C364.433 37.984 368.657 36.928 373.329 36.928C378.001 36.928 382.193 37.984 385.905 40.096C389.681 42.208 392.657 45.216 394.833 49.12C397.073 52.96 398.193 57.536 398.193 62.848C398.193 68.16 397.105 72.8 394.929 76.768C392.753 80.672 389.777 83.712 386.001 85.888C382.289 88.064 378.065 89.152 373.329 89.152ZM373.329 81.472C378.385 81.472 382.321 79.776 385.137 76.384C387.953 72.928 389.361 68.48 389.361 63.04C389.361 59.712 388.657 56.672 387.249 53.92C385.841 51.104 383.921 48.864 381.489 47.2C379.121 45.472 376.401 44.608 373.329 44.608C368.273 44.608 364.337 46.272 361.521 49.6C358.705 52.928 357.297 57.344 357.297 62.848C357.297 66.176 358.001 69.28 359.409 72.16C360.817 74.976 362.705 77.248 365.073 78.976C367.505 80.64 370.257 81.472 373.329 81.472ZM427.152 89.152C422.352 89.152 418.544 87.584 415.728 84.448C412.976 81.248 411.6 76.704 411.6 70.816V47.392H402.96V39.904H411.792L413.616 24.16H420.24V39.904H434.064V47.392H420.24V71.488C420.24 75.2 421.008 77.792 422.544 79.264C424.144 80.736 426.032 81.472 428.208 81.472C429.808 81.472 431.312 81.216 432.72 80.704C434.192 80.192 435.536 79.584 436.752 78.88L439.152 85.792C437.872 86.56 436.144 87.296 433.968 88C431.792 88.768 429.52 89.152 427.152 89.152ZM466.985 89.152C462.249 89.152 457.993 88.064 454.217 85.888C450.441 83.648 447.465 80.576 445.289 76.672C443.177 72.704 442.121 68.16 442.121 63.04C442.121 57.664 443.209 53.024 445.385 49.12C447.561 45.216 450.537 42.208 454.313 40.096C458.089 37.984 462.313 36.928 466.985 36.928C471.657 36.928 475.849 37.984 479.561 40.096C483.337 42.208 486.313 45.216 488.489 49.12C490.729 52.96 491.849 57.536 491.849 62.848C491.849 68.16 490.761 72.8 488.585 76.768C486.409 80.672 483.433 83.712 479.657 85.888C475.945 88.064 471.721 89.152 466.985 89.152ZM466.985 81.472C472.041 81.472 475.977 79.776 478.793 76.384C481.609 72.928 483.017 68.48 483.017 63.04C483.017 59.712 482.313 56.672 480.905 53.92C479.497 51.104 477.577 48.864 475.145 47.2C472.777 45.472 470.057 44.608 466.985 44.608C461.929 44.608 457.993 46.272 455.177 49.6C452.361 52.928 450.953 57.344 450.953 62.848C450.953 66.176 451.657 69.28 453.065 72.16C454.473 74.976 456.361 77.248 458.729 78.976C461.161 80.64 463.913 81.472 466.985 81.472Z" fill="#53398B"/>
<path d="M37.9996 70.4585C41.2781 72.962 45.4006 74.4533 49.8785 74.4533C54.5275 74.4533 58.7934 72.8459 62.1295 70.1672L60.7602 68.8092C57.7829 71.1406 54.0034 72.538 49.8785 72.538C45.9257 72.538 42.29 71.2547 39.3735 69.096L37.9996 70.4585Z" fill="#371878"/>
<path d="M36.1638 66.0114L34.7966 67.3673C32.1294 64.1172 30.5332 59.9869 30.5332 55.4911C30.5332 50.8544 32.231 46.6064 35.0505 43.3118L36.415 44.665C33.9345 47.6142 32.4486 51.389 32.4486 55.4911C32.4486 59.4528 33.8345 63.1092 36.1638 66.0114Z" fill="#371878"/>
<path d="M63.6403 45.0296C65.9412 47.9223 67.3085 51.5561 67.3085 55.4911C67.3085 59.2852 66.0373 62.7994 63.8837 65.6392L65.2551 66.9992C67.7448 63.8079 69.2239 59.8188 69.2239 55.4911C69.2239 51.0221 67.6467 46.9142 65.0081 43.673L63.6403 45.0296Z" fill="#371878"/>
<path d="M61.8174 40.5696L60.4443 41.9314C57.5177 39.7454 53.8589 38.4442 49.8785 38.4442C46.0706 38.4442 42.557 39.6351 39.6971 41.6523L38.3186 40.2852C41.5437 37.9257 45.5447 36.5288 49.8785 36.5288C54.3838 36.5288 58.5293 38.0384 61.8174 40.5696Z" fill="#371878"/>
<path d="M42.1833 58.6941H45.6925V64.6326H42.1833V58.6941Z" fill="#371878"/>
<path d="M47.8517 56.2647H51.3609V64.6326H47.8517V56.2647Z" fill="#371878"/>
<path d="M53.5201 52.4856H57.0293V64.6326H53.5201V52.4856Z" fill="#371878"/>
<path d="M43.5327 56.8045C42.345 57.1285 41.9581 56.9395 41.9131 56.8045C41.9131 56.6696 41.98 56.3425 45.2873 55.1849C47.9866 54.2402 53.0703 50.4611 54.33 48.9765L53.5202 47.8967L57.0294 47.0869L56.2196 50.731L55.4098 49.6513C50.416 54.5101 45.0173 56.3996 43.5327 56.8045Z" fill="#371878"/>
<path d="M30.5339 55.3699L21.1023 55.4173C19.8372 55.4756 17.9221 55.5436 16.1445 55.564C15.2359 55.5744 14.3243 55.5728 13.5375 55.548C12.8949 55.5277 11.9098 55.4851 11.1084 55.3002C9.93845 55.0302 8.80986 54.4994 8.06025 54.1115C7.24577 53.6899 6.50883 53.241 6.03291 52.9237L5.97897 52.8878L5.92606 52.8503C5.1791 52.3213 4.18183 51.4658 3.23748 50.4011C2.31097 49.3564 1.20569 47.8539 0.566727 46.017C-0.123338 44.0331 -0.074983 42.1053 0.146963 40.6627C0.368369 39.2236 0.811694 37.9448 1.25613 37.056L1.35374 36.8608L1.46941 36.6757C2.01327 35.8055 2.90758 34.7202 4.06871 33.7491C4.94868 33.0132 6.12952 32.2199 7.57677 31.6922C7.22441 30.8317 6.95815 29.8604 6.87302 28.7964C6.5881 25.235 8.14867 22.2133 9.20806 20.7422C9.94884 19.5311 11.0981 18.5969 12.2524 17.9379C13.7113 17.1049 15.5763 16.4738 17.8737 16.1792C19.6974 15.9454 21.2988 16.1302 22.6803 16.561C23.0736 15.2881 23.6826 14.2151 24.2923 13.375C25.255 12.0485 26.4043 11.0414 27.3513 10.4354L27.6084 10.2708L27.885 10.1417C29.9585 9.17414 34.4005 8.21169 39.1482 10.008C42.147 11.1427 44.2197 13.5302 45.5038 15.4309C46.8423 17.4123 47.7509 19.5017 48.2125 20.9376L48.4329 21.6232V36.5808C44.6558 36.8544 41.1805 38.191 38.317 40.2864L31.9122 33.9345C31.0396 33.0692 29.6308 33.075 28.7654 33.9476C27.9 34.8202 27.9059 36.229 28.7784 37.0944L35.0493 43.3134C32.2552 46.5791 30.5631 50.7812 30.5339 55.3699Z" fill="#371878"/>
<path d="M62.128 70.1685C59.1175 72.5853 55.3499 74.1296 51.2271 74.4079V91.3796L51.4475 92.0652C51.9091 93.5012 52.8177 95.5906 54.1562 97.572C55.4403 99.4727 57.513 101.86 60.5118 102.995C65.2595 104.791 69.7015 103.829 71.775 102.861L72.0516 102.732L72.3087 102.567C73.2557 101.961 74.405 100.954 75.3677 99.6279C75.9775 98.7877 76.5864 97.7148 76.9797 96.4419C78.3612 96.8726 79.9626 97.0574 81.7863 96.8236C84.0837 96.5291 85.9487 95.8979 87.4076 95.065C88.5619 94.406 89.7112 93.4718 90.4519 92.2607C91.5113 90.7896 93.0719 87.7679 92.787 84.2065C92.7019 83.1424 92.4356 82.1711 92.0832 81.3107C93.5305 80.7829 94.7113 79.9896 95.5913 79.2537C96.7524 78.2826 97.6467 77.1973 98.1906 76.3272L98.3063 76.1421L98.4039 75.9469C98.8483 75.0581 99.2916 73.7792 99.513 72.3401C99.735 70.8975 99.7833 68.9697 99.0933 66.9858C98.4543 65.1489 97.349 63.6464 96.4225 62.6017C95.4782 61.537 94.4809 60.6815 93.7339 60.1525L93.681 60.1151L93.6271 60.0791C93.1512 59.7619 92.4142 59.3129 91.5997 58.8914C90.8501 58.5034 89.7215 57.9726 88.5516 57.7026C87.7502 57.5177 86.7651 57.4751 86.1225 57.4548C85.3357 57.43 84.4241 57.4285 83.5155 57.4389C81.7379 57.4592 79.8228 57.5273 78.5577 57.5855L69.1021 57.6331C68.7007 61.1323 67.3278 64.3433 65.254 67.0009L71.6418 73.3361C72.5144 74.2014 72.5202 75.6103 71.6549 76.4829C70.7895 77.3554 69.3806 77.3613 68.5081 76.4959L62.128 70.1685Z" fill="#371878"/>
<path d="M30.6556 57.6335L21.1023 57.5855C19.8372 57.5273 17.9221 57.4592 16.1445 57.4389C15.2359 57.4285 14.3243 57.43 13.5375 57.4548C12.8949 57.4751 11.9098 57.5177 11.1084 57.7026C9.93845 57.9726 8.80986 58.5034 8.06025 58.8914C7.24577 59.3129 6.50883 59.7619 6.03291 60.0791L5.97897 60.1151L5.92606 60.1525C5.1791 60.6815 4.18183 61.537 3.23748 62.6017C2.31097 63.6464 1.20569 65.1489 0.566727 66.9858C-0.123338 68.9697 -0.074983 70.8975 0.146963 72.3401C0.368369 73.7792 0.811694 75.0581 1.25613 75.9469L1.35374 76.1421L1.46941 76.3272C2.01327 77.1973 2.90758 78.2826 4.06871 79.2537C4.94868 79.9896 6.12952 80.7829 7.57677 81.3107C7.22441 82.1711 6.95815 83.1424 6.87302 84.2065C6.5881 87.7679 8.14867 90.7896 9.20806 92.2607C9.94884 93.4718 11.0981 94.406 12.2524 95.065C13.7113 95.8979 15.5763 96.5291 17.8737 96.8236C19.6974 97.0574 21.2988 96.8726 22.6803 96.4419C23.0736 97.7148 23.6826 98.7877 24.2923 99.6279C25.255 100.954 26.4043 101.961 27.3513 102.567L27.6084 102.732L27.885 102.861C29.9585 103.829 34.4005 104.791 39.1482 102.995C42.147 101.86 44.2197 99.4727 45.5038 97.572C46.8423 95.5906 47.7509 93.5012 48.2125 92.0652L48.4329 91.3796V74.401C44.5153 74.1173 40.9223 72.69 37.9999 70.4584L31.9121 76.4959C31.0395 77.3613 29.6307 77.3554 28.7653 76.4828C27.8999 75.6103 27.9058 74.2014 28.7783 73.336L34.7968 67.3672C32.5594 64.6408 31.0757 61.2949 30.6556 57.6335Z" fill="#371878"/>
<path d="M65.0084 43.6729C67.6232 46.8849 69.1957 50.9481 69.2238 55.3704L78.5577 55.4173C79.8228 55.4756 81.7379 55.5436 83.5155 55.564C84.4241 55.5744 85.3357 55.5728 86.1225 55.548C86.7651 55.5277 87.7502 55.4851 88.5516 55.3002C89.7215 55.0302 90.8501 54.4994 91.5997 54.1115C92.4142 53.6899 93.1512 53.241 93.6271 52.9237L93.681 52.8878L93.7339 52.8503C94.4809 52.3213 95.4782 51.4658 96.4225 50.4011C97.349 49.3564 98.4543 47.8539 99.0933 46.017C99.7833 44.0331 99.735 42.1053 99.513 40.6627C99.2916 39.2236 98.8483 37.9448 98.4039 37.056L98.3063 36.8608L98.1906 36.6757C97.6467 35.8055 96.7524 34.7202 95.5913 33.7491C94.7113 33.0132 93.5305 32.2199 92.0832 31.6922C92.4356 30.8317 92.7019 29.8604 92.787 28.7964C93.0719 25.235 91.5113 22.2133 90.4519 20.7422C89.7112 19.5311 88.5619 18.5969 87.4076 17.9379C85.9487 17.1049 84.0837 16.4738 81.7863 16.1792C79.9626 15.9454 78.3612 16.1302 76.9797 16.561C76.5864 15.2881 75.9775 14.2151 75.3677 13.375C74.405 12.0485 73.2557 11.0414 72.3087 10.4354L72.0516 10.2708L71.775 10.1417C69.7015 9.17414 65.2595 8.21169 60.5118 10.008C57.513 11.1427 55.4403 13.5302 54.1562 15.4309C52.8177 17.4123 51.9091 19.5017 51.4475 20.9376L51.2271 21.6232V36.574C55.2095 36.8428 58.8604 38.2929 61.8177 40.5695L68.508 33.9345C69.3805 33.0691 70.7894 33.075 71.6548 33.9476C72.5201 34.8201 72.5143 36.229 71.6417 37.0944L65.0084 43.6729Z" fill="#371878"/>
</svg>
